<?xml version="1.0" encoding="iso-8859-1"?>
<!-- Generator: Adobe Illustrator 19.0.0, SVG Export Plug-In . SVG Version: 6.00 Build 0)  -->
<svg version="1.1" id="Layer_1" xmlns="http://www.w3.org/2000/svg" xmlns:xlink="http://www.w3.org/1999/xlink" x="0px" y="0px"
	 viewBox="0 0 512 512" style="enable-background:new 0 0 512 512;" xml:space="preserve">
<path style="fill:#35D8B9;" d="M256.001,419.228L256.001,419.228c-26.807,0-48.539-21.731-48.539-48.539V191.703h97.077v178.986
	C304.539,397.496,282.807,419.228,256.001,419.228z"/>
<path style="fill:#2BBFA3;" d="M238.146,370.689V191.703h-30.685v178.986c0,26.807,21.731,48.539,48.539,48.539l0,0
	c5.363,0,10.518-0.883,15.342-2.489C252.057,410.316,238.146,392.133,238.146,370.689z"/>
<rect x="191.786" y="137.097" style="fill:#35D8B9;" width="128.425" height="54.609"/>
<rect x="191.786" y="137.097" style="fill:#2BBFA3;" width="24.026" height="54.609"/>
<g>
	<path style="fill:#FFFFFF;" d="M289.701,177.562c-4.707,0-8.524-3.816-8.524-8.524v-10.797c0-4.707,3.816-8.524,8.524-8.524
		s8.524,3.816,8.524,8.524v10.797C298.225,173.746,294.409,177.562,289.701,177.562z"/>
	<path style="fill:#FFFFFF;" d="M275.496,375.873c-4.707,0-8.524-3.816-8.524-8.524V240.635c0-4.707,3.816-8.524,8.524-8.524
		c4.707,0,8.524,3.816,8.524,8.524v126.714C284.02,372.056,280.204,375.873,275.496,375.873z"/>
</g>
<path style="fill:#F4550F;" d="M433.296,419.228L433.296,419.228c-26.807,0-48.539-21.731-48.539-48.539V191.703h97.077v178.986
	C481.834,397.496,460.103,419.228,433.296,419.228z"/>
<path style="fill:#D6400B;" d="M415.441,370.689V191.703h-30.685v178.986c0,26.807,21.731,48.539,48.539,48.539l0,0
	c5.363,0,10.518-0.883,15.342-2.489C429.352,410.316,415.441,392.133,415.441,370.689z"/>
<rect x="369.081" y="137.097" style="fill:#F4550F;" width="128.425" height="54.609"/>
<rect x="369.081" y="137.097" style="fill:#D6400B;" width="24.026" height="54.609"/>
<g>
	<path style="fill:#FFFFFF;" d="M466.997,177.562c-4.707,0-8.524-3.816-8.524-8.524v-10.797c0-4.707,3.816-8.524,8.524-8.524
		c4.707,0,8.524,3.816,8.524,8.524v10.797C475.52,173.746,471.704,177.562,466.997,177.562z"/>
	<path style="fill:#FFFFFF;" d="M452.791,375.873c-4.707,0-8.524-3.816-8.524-8.524V240.635c0-4.707,3.816-8.524,8.524-8.524
		c4.707,0,8.524,3.816,8.524,8.524v126.714C461.315,372.056,457.499,375.873,452.791,375.873z"/>
</g>
<path style="fill:#CCCCCC;" d="M78.705,419.228L78.705,419.228c-26.807,0-48.539-21.731-48.539-48.539V191.703h97.077v178.986
	C127.243,397.496,105.512,419.228,78.705,419.228z"/>
<path style="fill:#B3B3B3;" d="M60.851,370.689V191.703H30.166v178.986c0,26.807,21.731,48.539,48.539,48.539l0,0
	c5.363,0,10.518-0.883,15.342-2.489C74.762,410.316,60.851,392.133,60.851,370.689z"/>
<rect x="14.493" y="137.097" style="fill:#CCCCCC;" width="128.425" height="54.609"/>
<rect x="14.493" y="137.097" style="fill:#B3B3B3;" width="24.026" height="54.609"/>
<g>
	<path style="fill:#FFFFFF;" d="M112.406,177.562c-4.707,0-8.524-3.816-8.524-8.524v-10.797c0-4.707,3.816-8.524,8.524-8.524
		c4.707,0,8.524,3.816,8.524,8.524v10.797C120.93,173.746,117.114,177.562,112.406,177.562z"/>
	<path style="fill:#FFFFFF;" d="M98.201,375.873c-4.707,0-8.524-3.816-8.524-8.524V240.635c0-4.707,3.816-8.524,8.524-8.524
		s8.524,3.816,8.524,8.524v126.714C106.725,372.056,102.908,375.873,98.201,375.873z"/>
	<circle style="fill:#FFFFFF;" cx="452.796" cy="217.334" r="8.524"/>
	<circle style="fill:#FFFFFF;" cx="275.501" cy="217.334" r="8.524"/>
	<circle style="fill:#FFFFFF;" cx="98.206" cy="217.334" r="8.524"/>
</g>
<path style="fill:#333333;" d="M487.042,101.297h16.434c4.707,0,8.524-3.816,8.524-8.524c0-4.707-3.816-8.524-8.524-8.524h-16.434
	c-17.259,0-31.299,14.04-31.299,31.299v13.024h-40.631v-13.024c0-17.259-14.04-31.299-31.299-31.299h-78.328
	c-17.259,0-31.299,14.04-31.299,31.299v13.024h-36.368v-13.024c0-17.259-14.04-31.299-31.299-31.299h-78.328
	c-17.259,0-31.299,14.04-31.299,31.299v13.024H56.257v-13.024c0-17.259-14.04-31.299-31.299-31.299H8.524
	C3.816,84.249,0,88.066,0,92.773c0,4.707,3.816,8.524,8.524,8.524h16.434c7.859,0,14.252,6.393,14.252,14.252v13.024H14.493
	c-4.707,0-8.524,3.816-8.524,8.524v54.606c0,4.707,3.816,8.524,8.524,8.524h7.15v170.462c0,31.464,25.598,57.062,57.063,57.062
	c31.464,0,57.062-25.598,57.062-57.062V200.226h7.151c4.707,0,8.524-3.816,8.524-8.524v-54.606c0-4.707-3.816-8.524-8.524-8.524
	h-28.981v-13.024c0-7.859,6.393-14.252,14.252-14.252h78.328c7.859,0,14.252,6.393,14.252,14.252v13.024h-28.981
	c-4.707,0-8.524,3.816-8.524,8.524v54.606c0,4.707,3.816,8.524,8.524,8.524h7.15v170.462c0,31.464,25.598,57.062,57.063,57.062
	c31.464,0,57.062-25.598,57.062-57.062V200.226h7.151c4.707,0,8.524-3.816,8.524-8.524v-54.606c0-4.707-3.816-8.524-8.524-8.524
	h-28.981v-13.024c0-7.859,6.393-14.252,14.252-14.252h78.328c7.859,0,14.252,6.393,14.252,14.252v13.024h-28.981
	c-4.707,0-8.524,3.816-8.524,8.524v54.606c0,4.707,3.816,8.524,8.524,8.524h7.15v170.462c0,31.464,25.598,57.062,57.063,57.062
	c31.464,0,57.062-25.598,57.062-57.062V200.226h7.151c4.707,0,8.524-3.816,8.524-8.524v-54.606c0-4.707-3.816-8.524-8.524-8.524
	H472.79v-13.024C472.79,107.69,479.184,101.297,487.042,101.297z M118.72,370.689c0,22.064-17.95,40.014-40.014,40.014l0,0
	c-22.064,0-40.014-17.95-40.014-40.014V200.226h80.029v170.462H118.72z M134.394,183.179H23.017v-37.558h111.378V183.179z
	 M296.015,370.689c0,22.064-17.95,40.014-40.014,40.014l0,0c-22.064,0-40.014-17.95-40.014-40.014V200.226h80.029v170.462H296.015z
	 M311.689,183.179H200.312v-37.558h111.378V183.179z M473.31,370.689c0,22.064-17.95,40.014-40.014,40.014l0,0
	c-22.064,0-40.014-17.95-40.014-40.014V200.226h80.029v170.462H473.31z M488.985,183.179H377.607v-37.558h111.378V183.179z"/>
<g>
</g>
<g>
</g>
<g>
</g>
<g>
</g>
<g>
</g>
<g>
</g>
<g>
</g>
<g>
</g>
<g>
</g>
<g>
</g>
<g>
</g>
<g>
</g>
<g>
</g>
<g>
</g>
<g>
</g>
</svg>
