<?xml version="1.0" encoding="iso-8859-1"?>
<!-- Generator: Adobe Illustrator 19.0.0, SVG Export Plug-In . SVG Version: 6.00 Build 0)  -->
<svg version="1.1" id="Layer_1" xmlns="http://www.w3.org/2000/svg" xmlns:xlink="http://www.w3.org/1999/xlink" x="0px" y="0px"
	 viewBox="0 0 511.999 511.999" style="enable-background:new 0 0 511.999 511.999;" xml:space="preserve">
<path style="fill:#E6E6E6;" d="M387.189,447.521h-262.38c-17.367,0-31.445-14.078-31.445-31.445V40.401
	c0-17.367,14.078-31.445,31.445-31.445h262.379c17.367,0,31.445,14.078,31.445,31.445v375.675
	C418.633,433.444,404.556,447.521,387.189,447.521z"/>
<path style="fill:#F2F2F2;" d="M134.006,417.668c-5.959,0-10.789-4.83-10.789-10.789V49.597c0-5.959,4.83-10.789,10.789-10.789
	h243.987c5.959,0,10.789,4.83,10.789,10.789V406.88c0,5.959-4.83,10.789-10.789,10.789H134.006z"/>
<path style="fill:#35D8B9;" d="M220.542,256.724c19.581-19.581,51.328-19.581,70.918,0.008c19.581,19.581,19.581,51.328,0,70.909
	c-19.589,19.589-51.337,19.589-70.918,0.008C200.953,308.06,200.953,276.312,220.542,256.724z"/>
<rect x="201.623" y="370.506" style="fill:#F4550F;" width="108.747" height="34.092"/>
<path style="fill:#B9FCEF;" d="M291.46,256.732c19.581,19.581,19.581,51.328,0,70.909c-19.589,19.589-51.337,19.589-70.918,0.008"/>
<g>
	<path style="fill:#333333;" d="M387.189,0h-262.38c-22.277,0-40.4,18.124-40.4,40.4v375.675c0,22.277,18.124,40.4,40.4,40.4h96.264
		v46.568c0,4.946,4.01,8.956,8.956,8.956s8.956-4.01,8.956-8.956v-46.568h34.03v46.568c0,4.946,4.01,8.956,8.956,8.956
		c4.946,0,8.956-4.01,8.956-8.956v-46.568h96.264c22.277,0,40.401-18.124,40.401-40.4V40.4C427.59,18.124,409.466,0,387.189,0z
		 M409.679,416.077c0,12.401-10.089,22.489-22.49,22.489h-262.38c-12.401,0-22.489-10.089-22.489-22.489V40.4
		c0-12.4,10.088-22.489,22.489-22.489h262.379c12.401,0,22.49,10.089,22.49,22.489v375.677H409.679z"/>
	<path style="fill:#333333;" d="M255.999,351.292c32.591,0,59.106-26.515,59.106-59.106s-26.515-59.106-59.106-59.106
		s-59.106,26.515-59.106,59.106S223.408,351.292,255.999,351.292z M255.999,250.993c22.714,0,41.194,18.48,41.194,41.194
		c0,22.714-18.48,41.194-41.194,41.194s-41.194-18.48-41.194-41.194S233.285,250.993,255.999,250.993z"/>
	<path style="fill:#333333;" d="M310.376,361.55H201.622c-4.946,0-8.956,4.01-8.956,8.956v34.086c0,4.946,4.01,8.956,8.956,8.956
		h108.754c4.946,0,8.956-4.01,8.956-8.956v-34.086C319.332,365.56,315.322,361.55,310.376,361.55z M301.42,395.636h-90.843v-16.174
		h90.843V395.636L301.42,395.636z"/>
</g>
<path style="fill:#666666;" d="M255.999,301.142c4.946,0,8.956-4.01,8.956-8.956v-16.608c0-4.946-4.01-8.956-8.956-8.956
	c-4.946,0-8.956,4.01-8.956,8.956v16.608C247.043,297.132,251.053,301.142,255.999,301.142z"/>
<g>
</g>
<g>
</g>
<g>
</g>
<g>
</g>
<g>
</g>
<g>
</g>
<g>
</g>
<g>
</g>
<g>
</g>
<g>
</g>
<g>
</g>
<g>
</g>
<g>
</g>
<g>
</g>
<g>
</g>
</svg>
