<svg xmlns="http://www.w3.org/2000/svg" viewBox="0 0 32 32"><title>77-House-Plan</title><g id="_77-House-Plan" data-name="77-House-Plan"><path d="M29,0H3A3,3,0,0,0,0,3V29a3,3,0,0,0,3,3H17V30H3a1,1,0,0,1-1-1V20H8v4a1,1,0,0,0,1,1h6V23H10V20h5a1,1,0,0,0,1-1V13H14v5H2V3A1,1,0,0,1,3,2H14V8H7v2h8a1,1,0,0,0,1-1V2H29a1,1,0,0,1,1,1v9H24V5H22v8a1,1,0,0,0,1,1h7v2h2V3A3,3,0,0,0,29,0Z"/><polygon points="28.29 19.29 25 22.59 21.71 19.29 20.29 20.71 23.59 24 20.29 27.29 21.71 28.71 25 25.41 28.29 28.71 29.71 27.29 26.41 24 29.71 20.71 28.29 19.29"/></g></svg>