<svg xmlns="http://www.w3.org/2000/svg" viewBox="0 0 32 32"><defs><style>.cls-1{fill:#231f20;}</style></defs><g id="receipt"><path class="cls-1" d="M24.51,2.93l-.35-.37a1.85,1.85,0,0,0-2.45-.14,1.81,1.81,0,0,0-2.28,0A1.78,1.78,0,0,0,18.29,2h0a1.79,1.79,0,0,0-1.15.42,1.81,1.81,0,0,0-2.28,0A1.79,1.79,0,0,0,13.71,2h0a1.78,1.78,0,0,0-1.14.42,1.81,1.81,0,0,0-2.28,0,1.85,1.85,0,0,0-2.45.14l-.34.37A1.84,1.84,0,0,0,7,4.19V27.81a1.88,1.88,0,0,0,.49,1.26l.35.37a1.85,1.85,0,0,0,2.45.14,1.81,1.81,0,0,0,2.28,0,1.78,1.78,0,0,0,1.14.42h0a1.79,1.79,0,0,0,1.15-.42,1.81,1.81,0,0,0,2.28,0,1.79,1.79,0,0,0,1.15.42h0a1.78,1.78,0,0,0,1.14-.42,1.81,1.81,0,0,0,2.28,0,1.85,1.85,0,0,0,2.45-.14l.34-.37a1.84,1.84,0,0,0,.5-1.26V4.19A1.88,1.88,0,0,0,24.51,2.93ZM23,27.75l-.15.16a1.81,1.81,0,0,0-1.14-.41h0a1.78,1.78,0,0,0-1.14.42,1.81,1.81,0,0,0-2.28,0,1.83,1.83,0,0,0-2.29,0,1.82,1.82,0,0,0-2.29,0,1.82,1.82,0,0,0-2.28,0,1.78,1.78,0,0,0-1.14-.42h0a1.81,1.81,0,0,0-1.14.41L9,27.75V4.25l.15-.16a1.81,1.81,0,0,0,1.14.41h0a1.78,1.78,0,0,0,1.14-.42,1.81,1.81,0,0,0,2.28,0,1.82,1.82,0,0,0,2.29,0,1.83,1.83,0,0,0,2.29,0,1.81,1.81,0,0,0,2.28,0,1.78,1.78,0,0,0,1.14.42h0a1.81,1.81,0,0,0,1.14-.41l.15.16Z"/><path class="cls-1" d="M11,18h4a1,1,0,0,0,0-2H11a1,1,0,0,0,0,2Z"/><path class="cls-1" d="M19,19H11a1,1,0,0,0,0,2h8a1,1,0,0,0,0-2Z"/><path class="cls-1" d="M19,22H11a1,1,0,0,0,0,2h8a1,1,0,0,0,0-2Z"/><path class="cls-1" d="M14.53,11.89a2.5,2.5,0,0,0,.91.29v.49a.14.14,0,0,0,.06.12.17.17,0,0,0,.12.06h.72a.16.16,0,0,0,.13-.06.13.13,0,0,0,.05-.12v-.5a2.59,2.59,0,0,0,.89-.28,1.48,1.48,0,0,0,.6-.53,1.37,1.37,0,0,0,.21-.75A1.34,1.34,0,0,0,18,9.87a1.28,1.28,0,0,0-.6-.47,3.66,3.66,0,0,0-1.08-.28L15.81,9a.72.72,0,0,1-.28-.14.24.24,0,0,1-.07-.18.26.26,0,0,1,.12-.24A.75.75,0,0,1,16,8.35a.8.8,0,0,1,.36.08.35.35,0,0,1,.17.17.31.31,0,0,0,.11.09.32.32,0,0,0,.14,0h1.18a.13.13,0,0,0,.1,0,.16.16,0,0,0,0-.11A1.07,1.07,0,0,0,17.87,8a1.77,1.77,0,0,0-.51-.51,2.38,2.38,0,0,0-.84-.32v-.5a.14.14,0,0,0-.05-.13.16.16,0,0,0-.13-.06h-.72a.17.17,0,0,0-.12.06.15.15,0,0,0-.06.13V7.2a2,2,0,0,0-1.12.51,1.33,1.33,0,0,0-.42,1,1.28,1.28,0,0,0,.21.75,1.4,1.4,0,0,0,.6.49,3.62,3.62,0,0,0,.94.27l.61.13a1,1,0,0,1,.32.14.25.25,0,0,1,.09.2.28.28,0,0,1-.17.24A1.15,1.15,0,0,1,16,11a1,1,0,0,1-.31,0,.56.56,0,0,1-.22-.1l-.15-.15-.12-.09a.31.31,0,0,0-.15,0H13.93a.15.15,0,0,0-.1,0,.16.16,0,0,0-.05.11,1.2,1.2,0,0,0,.2.62A1.44,1.44,0,0,0,14.53,11.89Z"/></g></svg>