<?xml version="1.0" encoding="iso-8859-1"?>
<!-- Generator: Adobe Illustrator 19.0.0, SVG Export Plug-In . SVG Version: 6.00 Build 0)  -->
<svg version="1.1" id="Layer_1" xmlns="http://www.w3.org/2000/svg" xmlns:xlink="http://www.w3.org/1999/xlink" x="0px" y="0px"
	 viewBox="0 0 512 512" style="enable-background:new 0 0 512 512;" xml:space="preserve">
<polygon style="fill:#F2F2F2;" points="471.688,245.941 352.923,245.941 352.923,149.034 448.525,149.034 "/>
<polygon style="fill:#FFFFFF;" points="471.688,245.941 378.548,245.941 443.478,149.034 448.525,149.034 "/>
<path style="fill:#35D8B9;" d="M502.86,275.602v109.549h-43.876h-0.012c0-0.073,0-0.158,0-0.232
	c0-31.307-25.382-56.688-56.688-56.688s-56.676,25.382-56.676,56.688c0,0.073,0,0.159,0,0.232H153.611h-0.012
	c0-0.073,0-0.158,0-0.232c0-31.307-25.37-56.688-56.676-56.688s-56.688,25.382-56.688,56.688c0,0.073,0,0.159,0,0.232H9.147V91.517
	c0-11.667,9.448-21.115,21.115-21.115h372.754c15.653,0,29.271,10.74,32.916,25.979l12.593,52.653h-95.602v96.907h118.765
	l17.555,8.241C497.557,258.083,502.86,266.422,502.86,275.602z"/>
<g>
	<rect x="9.147" y="340.667" style="fill:#2BBFA3;" width="495.006" height="44.485"/>
	<polygon style="fill:#2BBFA3;" points="489.243,250.452 9.147,250.452 9.147,272.694 504.157,272.694 	"/>
	<polygon style="fill:#2BBFA3;" points="424.24,72.462 9.147,72.462 9.147,94.705 439.155,94.705 	"/>
</g>
<g>
	<path style="fill:#E6E6E6;" d="M402.284,358.708c14.459,0,26.211,11.752,26.211,26.211c0,14.446-11.752,26.199-26.211,26.199
		c-14.446,0-26.199-11.752-26.199-26.199C376.086,370.461,387.838,358.708,402.284,358.708z"/>
	<path style="fill:#E6E6E6;" d="M96.923,358.708c14.446,0,26.199,11.752,26.199,26.211c0,14.446-11.752,26.199-26.199,26.199
		c-14.459,0-26.211-11.752-26.211-26.199C70.712,370.461,82.464,358.708,96.923,358.708z"/>
</g>
<g>
	<path style="fill:#666666;" d="M458.973,384.919c0,0.073,0,0.159,0,0.232c-0.122,31.197-25.455,56.445-56.688,56.445
		s-56.554-25.248-56.676-56.445c0-0.073,0-0.158,0-0.232c0-31.307,25.37-56.688,56.676-56.688S458.973,353.613,458.973,384.919z
		 M428.495,384.919c0-14.459-11.752-26.211-26.211-26.211c-14.446,0-26.199,11.752-26.199,26.211
		c0,14.446,11.752,26.199,26.199,26.199C416.743,411.118,428.495,399.366,428.495,384.919z"/>
	<path style="fill:#666666;" d="M153.599,384.919c0,0.073,0,0.159,0,0.232c-0.122,31.197-25.443,56.445-56.676,56.445
		s-56.566-25.248-56.688-56.445c0-0.073,0-0.158,0-0.232c0-31.307,25.382-56.688,56.688-56.688S153.599,353.613,153.599,384.919z
		 M123.121,384.919c0-14.459-11.752-26.211-26.199-26.211c-14.459,0-26.211,11.752-26.211,26.211
		c0,14.446,11.752,26.199,26.211,26.199C111.369,411.118,123.121,399.366,123.121,384.919z"/>
</g>
<g>
	<path style="fill:#333333;" d="M493.133,245.905l-13.58-6.372L444.82,94.252c-4.647-19.428-21.839-32.995-41.808-32.995H30.257
		C13.574,61.256,0,74.83,0,91.513v293.635c0,5.05,4.093,9.143,9.143,9.143h22.625c4.567,31.871,32.037,56.452,65.15,56.452
		s60.583-24.581,65.15-56.452h175.07c4.567,31.871,32.037,56.452,65.15,56.452s60.583-24.581,65.15-56.452h35.417
		c5.051,0,9.143-4.094,9.143-9.143V275.601C512,262.94,504.594,251.285,493.133,245.905z M460.098,236.795h-98.036v-78.62h79.239
		L460.098,236.795z M96.919,432.457c-26.216,0-47.543-21.327-47.543-47.543c0-26.216,21.327-47.543,47.543-47.543
		s47.543,21.328,47.543,47.543S123.135,432.457,96.919,432.457z M402.289,432.457c-26.216,0-47.543-21.327-47.543-47.543
		c0-26.216,21.327-47.543,47.543-47.543s47.543,21.328,47.543,47.543S428.505,432.457,402.289,432.457z M493.713,376.005h-26.214
		c-4.364-32.097-31.934-56.919-65.21-56.919s-60.846,24.822-65.21,56.919h-174.95c-4.364-32.097-31.934-56.919-65.21-56.919
		s-60.846,24.822-65.21,56.919H18.287V91.513c0-6.601,5.37-11.97,11.97-11.97h372.755c11.473,0,21.353,7.797,24.024,18.962
		l9.894,41.384h-84.011c-5.051,0-9.143,4.094-9.143,9.143v96.907c0,5.05,4.093,9.143,9.143,9.143h116.726l15.718,7.377
		c5.073,2.381,8.351,7.539,8.351,13.142V376.005z"/>
	<path style="fill:#333333;" d="M96.919,349.564c-19.492,0-35.352,15.858-35.352,35.352c0,19.493,15.859,35.352,35.352,35.352
		s35.35-15.858,35.35-35.352C132.269,365.422,116.411,349.564,96.919,349.564z M96.919,401.979c-9.41,0-17.065-7.655-17.065-17.065
		c0-9.409,7.655-17.065,17.065-17.065c9.409,0,17.064,7.655,17.064,17.065C113.983,394.325,106.328,401.979,96.919,401.979z"/>
	<path style="fill:#333333;" d="M402.289,349.564c-19.492,0-35.352,15.858-35.352,35.352c0,19.493,15.859,35.352,35.352,35.352
		s35.35-15.858,35.35-35.352C437.639,365.422,421.783,349.564,402.289,349.564z M402.289,401.979
		c-9.41,0-17.065-7.655-17.065-17.065c0-9.409,7.655-17.065,17.065-17.065c9.409,0,17.064,7.655,17.064,17.065
		C419.353,394.325,411.698,401.979,402.289,401.979z"/>
</g>
<path style="fill:#FFFFFF;" d="M249.116,210.625l-1.044,1.044c-17.183-11.848-40.116-11.848-57.298,0l-51.477-51.478l0.979-0.979
	c3.571-3.571,3.571-9.36,0-12.93c-3.572-3.571-9.36-3.571-12.931,0l-0.978,0.978l-31.821-31.82c-3.571-3.571-9.359-3.572-12.931,0
	c-3.571,3.571-3.571,9.36,0,12.93l31.82,31.821l-0.98,0.98c-3.571,3.571-3.571,9.36,0,12.93c1.786,1.785,4.127,2.678,6.466,2.678
	s4.68-0.892,6.466-2.678l0.979-0.979l51.469,51.469c-5.79,8.364-8.918,18.268-8.918,28.658c0,10.389,3.127,20.293,8.917,28.658
	l-1.036,1.036c-3.571,3.571-3.571,9.36,0,12.93c1.786,1.785,4.127,2.678,6.466,2.678s4.68-0.892,6.466-2.678l72.317-72.317
	c3.571-3.571,3.571-9.36,0-12.93C258.476,207.054,252.686,207.054,249.116,210.625z M187.205,253.248
	c0-8.606,3.351-16.697,9.436-22.783c10.316-10.315,25.943-12.152,38.159-5.525l-43.694,43.694
	C188.56,263.967,187.205,258.713,187.205,253.248z"/>
<g>
</g>
<g>
</g>
<g>
</g>
<g>
</g>
<g>
</g>
<g>
</g>
<g>
</g>
<g>
</g>
<g>
</g>
<g>
</g>
<g>
</g>
<g>
</g>
<g>
</g>
<g>
</g>
<g>
</g>
</svg>
