<?xml version="1.0" encoding="iso-8859-1"?>
<!-- Generator: Adobe Illustrator 19.0.0, SVG Export Plug-In . SVG Version: 6.00 Build 0)  -->
<svg version="1.1" id="Layer_1" xmlns="http://www.w3.org/2000/svg" xmlns:xlink="http://www.w3.org/1999/xlink" x="0px" y="0px"
	 viewBox="0 0 511.999 511.999" style="enable-background:new 0 0 511.999 511.999;" xml:space="preserve">
<path style="fill:#35D8B9;" d="M292.688,362.231l-25.475-36.705l-25.475,36.705c-8.552,12.323-7.059,29.001,3.548,39.609l0,0
	c12.11,12.11,31.744,12.11,43.854,0l0,0C299.747,391.232,301.241,374.554,292.688,362.231z"/>
<g>
	<polyline style="fill:#CCCCCC;" points="263.596,141.787 155.318,117.53 153.174,127.1 124.906,253.259 122.762,262.84 
		242.299,289.615 268.841,171.174 	"/>
	
		<rect x="274.977" y="116.709" transform="matrix(-0.9845 0.1755 -0.1755 -0.9845 685.0499 341.3817)" style="fill:#CCCCCC;" width="104.905" height="168.545"/>
</g>
<rect x="263.602" y="117.708" transform="matrix(-0.9845 0.1755 -0.1755 -0.9845 651.2816 216.8035)" style="fill:#E6E6E6;" width="104.905" height="38.983"/>
<g>
	
		<rect x="286.504" y="247.157" transform="matrix(-0.9845 0.1755 -0.1755 -0.9845 719.2805 467.7822)" style="fill:#B3B3B3;" width="104.905" height="37.077"/>
	<polyline style="fill:#B3B3B3;" points="480.56,108.301 367.771,128.412 390.468,255.697 503.256,235.586 	"/>
</g>
<polyline style="fill:#999999;" points="497.162,201.412 384.374,221.523 390.468,255.697 503.256,235.586 "/>
<polyline style="fill:#CCCCCC;" points="480.56,108.301 367.771,128.412 373.49,160.485 486.279,140.374 "/>
<rect x="21.433" y="112.531" transform="matrix(-0.9758 -0.2186 0.2186 -0.9758 121.2238 367.7665)" style="fill:#B3B3B3;" width="119.046" height="129.292"/>
<g>
	
		<rect x="10.9" y="207.728" transform="matrix(-0.9758 -0.2186 0.2186 -0.9758 90.134 458.3568)" style="fill:#999999;" width="119.046" height="32.929"/>
	
		<rect x="128.286" y="244.074" transform="matrix(-0.9758 -0.2186 0.2186 -0.9758 314.1212 555.8305)" style="fill:#999999;" width="119.046" height="32.929"/>
</g>
<rect x="148.138" y="139.715" transform="matrix(-0.9758 -0.2186 0.2186 -0.9758 376.1588 353.9781)" style="fill:#E6E6E6;" width="119.046" height="32.929"/>
<rect x="31.303" y="113.615" transform="matrix(-0.9758 -0.2186 0.2186 -0.9758 150.3555 282.8708)" style="fill:#CCCCCC;" width="119.046" height="39.006"/>
<g>
	<path style="fill:#FFFFFF;" d="M223.301,174.679c-0.633,0-1.275-0.069-1.919-0.213l-46.588-10.436
		c-4.712-1.056-7.675-5.732-6.62-10.442c1.056-4.712,5.73-7.672,10.442-6.62l46.588,10.436c4.712,1.056,7.675,5.732,6.62,10.442
		C230.913,171.914,227.303,174.679,223.301,174.679z"/>
	<path style="fill:#FFFFFF;" d="M113.802,164.813c-0.633,0-1.275-0.069-1.919-0.213l-63.619-14.251
		c-4.712-1.056-7.675-5.732-6.62-10.443c1.055-4.712,5.732-7.673,10.442-6.62l63.619,14.251c4.712,1.056,7.675,5.732,6.62,10.443
		C121.414,162.048,117.804,164.813,113.802,164.813z"/>
	<path style="fill:#FFFFFF;" d="M403.783,163.415c-4.156,0-7.841-2.975-8.597-7.21c-0.849-4.754,2.318-9.294,7.072-10.141
		l63.944-11.401c4.748-0.842,9.294,2.318,10.141,7.072c0.849,4.754-2.318,9.294-7.072,10.141l-63.944,11.401
		C404.809,163.371,404.292,163.415,403.783,163.415z"/>
	<path style="fill:#FFFFFF;" d="M298.874,161.084c-4.156,0-7.841-2.975-8.597-7.21c-0.847-4.754,2.318-9.294,7.072-10.141
		l34.571-6.164c4.749-0.85,9.294,2.318,10.141,7.072c0.847,4.754-2.318,9.294-7.072,10.141l-34.571,6.164
		C299.9,161.039,299.384,161.084,298.874,161.084z"/>
</g>
<g>
	<path style="fill:#333333;" d="M511.862,234.052c-0.847-4.754-5.391-7.923-10.141-7.072l-104.188,18.577l-19.627-110.074
		l104.187-18.577c4.754-0.849,7.919-5.389,7.072-10.141c-0.847-4.754-5.391-7.923-10.141-7.072L374.836,118.27l-1.963-11.012
		c-0.408-2.282-1.704-4.311-3.607-5.636c-1.902-1.327-4.252-1.842-6.535-1.436l-103.274,18.415
		c-4.754,0.847-7.919,5.388-7.072,10.141l0.293,1.641L157.23,109c-4.714-1.058-9.387,1.908-10.442,6.619l-0.233,1.041L38.919,92.548
		c-4.713-1.053-9.387,1.909-10.442,6.62c-1.055,4.712,1.909,9.387,6.62,10.442l107.636,24.112l-24.445,109.104L10.655,218.716
		c-4.713-1.054-9.387,1.909-10.442,6.62c-1.055,4.712,1.909,9.387,6.62,10.442l107.632,24.11l-0.233,1.043
		c-1.055,4.712,1.909,9.386,6.621,10.441l119.538,26.775c0.643,0.145,1.286,0.213,1.919,0.213c4.002,0,7.612-2.765,8.523-6.832
		l17.031-75.999l14.111,79.138c0.408,2.282,1.704,4.311,3.607,5.636c1.477,1.03,3.224,1.571,5.001,1.571
		c0.511,0,1.025-0.045,1.534-0.135l103.273-18.415c4.754-0.847,7.919-5.388,7.072-10.141l-1.857-10.413l104.187-18.577
		C509.544,243.346,512.71,238.806,511.862,234.052z M235.68,279.175l-102.477-22.954l28.734-128.247l94.069,21.074l3.914,21.954
		L235.68,279.175z M297.65,282.991l-26.516-148.712l86.061-15.346l26.516,148.712L297.65,282.991z"/>
	<path style="fill:#333333;" d="M274.396,320.54c-1.634-2.353-4.318-3.758-7.183-3.758c-2.865,0-5.548,1.405-7.183,3.758
		l-25.475,36.705c-10.973,15.811-9.061,37.164,4.548,50.775c7.508,7.508,17.491,11.644,28.109,11.644s20.602-4.135,28.11-11.644
		c13.61-13.609,15.522-34.964,4.548-50.775L274.396,320.54z M282.958,395.657c-8.682,8.682-22.809,8.682-31.491,0
		c-7.623-7.623-8.695-19.585-2.547-28.442l18.293-26.358l18.293,26.358C291.653,376.072,290.582,388.034,282.958,395.657z"/>
</g>
<circle style="fill:#FFFFFF;" cx="273.625" cy="373.463" r="8.742"/>
<g>
</g>
<g>
</g>
<g>
</g>
<g>
</g>
<g>
</g>
<g>
</g>
<g>
</g>
<g>
</g>
<g>
</g>
<g>
</g>
<g>
</g>
<g>
</g>
<g>
</g>
<g>
</g>
<g>
</g>
</svg>
