<svg id="icon" xmlns="http://www.w3.org/2000/svg" viewBox="0 0 512 512"><path d="M108.95,397.115a11.2,11.2,0,0,1-5.875-9.8c.013-34.647-.009-106.4,0-140.612a11.2,11.2,0,0,1,5.875-9.8A36.639,36.639,0,0,0,126.5,216c5.636-18.252-3.941-42.4-25.9-48.283v29.1a13.44,13.44,0,0,1-13.221,13.439l-5.308.158-5.307-.158a13.439,13.439,0,0,1-13.221-13.439v-29.1c-21.92,5.806-31.561,30.111-25.9,48.282a36.643,36.643,0,0,0,17.554,20.912,11.2,11.2,0,0,1,5.875,9.8V387.318a11.2,11.2,0,0,1-5.875,9.8A36.641,36.641,0,0,0,37.64,418.027c-5.667,18.191,4.008,42.478,25.9,48.282v-29.1a13.44,13.44,0,0,1,13.221-13.439l5.307-.158,5.308.158A13.441,13.441,0,0,1,100.6,437.212v29.1c21.946-5.844,31.548-30.078,25.9-48.282A36.646,36.646,0,0,0,108.95,397.115Z" style="fill:#a3bed8"/><path d="M296.91,217.722l-106.759,105.9V454.392a32.255,32.255,0,0,0,32.254,32.254h40.772V408.635c0-18.292,14.223-33.87,32.5-34.52a33.734,33.734,0,0,1,34.963,33.711v78.82h40.772a32.255,32.255,0,0,0,32.254-32.254V323.625Z" style="fill:#ffb14a"/><polygon points="296.91 187.642 133.408 351.145 156.33 374.066 296.91 233.487 437.49 374.066 460.412 351.145 296.91 187.642" style="fill:#ff7b69"/><path d="M470.953,254.54l-5.786,5.787a17.314,17.314,0,0,1-24.483,0l-143.6-143.6,30.269-30.269,143.6,143.6A17.311,17.311,0,0,1,470.953,254.54Z" style="fill:#ff7b69"/><path d="M310.426,25.354l-75.221,75.221a15.322,15.322,0,0,0,0,21.669l19.26,19.26a15.322,15.322,0,0,0,21.669,0l92.013-92.013Z" style="fill:#a3bed8"/><path d="M102.012,471.956c16.654-4.164,24.822-16.776,28.74-26.622,8.976-21.466-1.681-44.55-19-53.32a5.4,5.4,0,0,1-2.856-4.7V246.705a5.4,5.4,0,0,1,2.857-4.7,42.2,42.2,0,0,0,20.292-24.23c6.509-20.98-4.264-48.832-30.033-55.711a5.862,5.862,0,0,0-7.232,5.648v29.1a7.675,7.675,0,0,1-7.574,7.622c-2.581.146-7.764.142-10.346,0a7.657,7.657,0,0,1-7.5-7.62v-29.1a5.821,5.821,0,0,0-7.232-5.647C36.3,168.981,25.618,196.785,32.1,217.779A42.212,42.212,0,0,0,52.39,242.011a5.394,5.394,0,0,1,2.857,4.694V387.318a5.4,5.4,0,0,1-2.856,4.7A42.187,42.187,0,0,0,32.1,416.244c-6.511,20.978,4.264,48.836,30.032,55.712a5.862,5.862,0,0,0,7.232-5.647v-29.1a7.673,7.673,0,0,1,7.574-7.622c2.582-.146,7.765-.143,10.347,0a7.655,7.655,0,0,1,7.5,7.62v29.1A5.864,5.864,0,0,0,102.012,471.956Zm-14.461-54c-2.808-.153-8.076-.157-10.881,0a19.346,19.346,0,0,0-18.947,19.258v20.526c-13.076-8.175-18.669-24.565-14.543-37.93A30.738,30.738,0,0,1,58,402.217a17.043,17.043,0,0,0,8.891-14.9V246.705A17.037,17.037,0,0,0,58,231.809,30.759,30.759,0,0,1,43.18,214.215c-4.113-13.427,1.439-29.69,14.543-37.93v20.528A19.333,19.333,0,0,0,76.592,216.07l5.307.157q.172,0,.345,0l5.231-.156a19.349,19.349,0,0,0,18.945-19.258V176.254c11.646,6.344,19.19,24.911,14.543,37.961a30.753,30.753,0,0,1-14.817,17.593,17.04,17.04,0,0,0-8.891,14.9V387.318a17.043,17.043,0,0,0,8.891,14.9h0a30.485,30.485,0,0,1,13.79,38.812c-2.248,5.651-6.316,12.51-13.517,16.709V437.212A19.33,19.33,0,0,0,87.551,417.955Z" style="fill:#333"/><path d="M190.15,368.732a5.82,5.82,0,0,0-5.82,5.82v79.839a38.118,38.118,0,0,0,38.075,38.075h40.771a5.821,5.821,0,0,0,5.821-5.82V408.635c0-15.3,12.062-28.176,26.89-28.7,15.382-.869,29.269,12.494,28.936,27.895v78.819a5.821,5.821,0,0,0,5.821,5.82h40.771a38.118,38.118,0,0,0,38.075-38.075V374.552a5.821,5.821,0,0,0-11.641,0v79.839a26.464,26.464,0,0,1-26.434,26.435H336.464v-73A39.552,39.552,0,0,0,295.473,368.3c-21.018.746-38.117,18.84-38.117,40.335v72.191H222.405a26.464,26.464,0,0,1-26.434-26.435V374.552A5.821,5.821,0,0,0,190.15,368.732Z" style="fill:#333"/><path d="M301.025,183.527a5.853,5.853,0,0,0-8.23,0l-163.5,163.5a5.857,5.857,0,0,0,0,8.231l22.922,22.921a5.818,5.818,0,0,0,8.232,0L296.91,241.718,433.375,378.181a5.817,5.817,0,0,0,8.23,0l22.921-22.921a5.818,5.818,0,0,0,0-8.231ZM437.49,365.834,301.025,229.371a5.819,5.819,0,0,0-8.23,0L156.33,365.834l-14.691-14.689L296.91,195.873,452.18,351.145Z" style="fill:#333"/><path d="M337.5,88.371l34.764-34.764a5.861,5.861,0,0,0-1.87-9.485L312.671,19.984a5.82,5.82,0,0,0-6.36,1.255L231.089,96.46a21.142,21.142,0,0,0,0,29.9l19.26,19.261c7.872,8.2,22.031,8.2,29.9,0L329.267,96.6,466.838,234.173a11.5,11.5,0,0,1,0,16.252l-5.786,5.787a11.511,11.511,0,0,1-16.253,0L321.477,132.889a5.82,5.82,0,1,0-8.23,8.231L436.569,264.442a23.156,23.156,0,0,0,32.713,0l5.786-5.786a23.155,23.155,0,0,0,0-32.714ZM272.019,137.39a9.549,9.549,0,0,1-13.438,0l-19.26-19.261a9.546,9.546,0,0,1,0-13.438l72.461-72.46L357.9,51.512Z" style="fill:#333"/></svg>