<?xml version="1.0" encoding="iso-8859-1"?>
<!-- Generator: Adobe Illustrator 19.0.0, SVG Export Plug-In . SVG Version: 6.00 Build 0)  -->
<svg version="1.1" id="Layer_1" xmlns="http://www.w3.org/2000/svg" xmlns:xlink="http://www.w3.org/1999/xlink" x="0px" y="0px"
	 viewBox="0 0 512 512" style="enable-background:new 0 0 512 512;" xml:space="preserve">
<polygon style="fill:#F4550F;" points="322.839,342.793 322.839,503.006 189.793,503.006 189.793,362.572 217.645,347.83 
	254.553,372.156 276.359,352.856 295.659,367.118 321.663,342.793 "/>
<path style="fill:#35D8B9;" d="M322.839,291.743v51.05h-1.176l-26.005,24.325l-19.3-14.262l-21.806,19.3l-36.908-24.325
	l-27.852,14.742v-69.27c0,0,23.486-20.967,57.035-14.262C280.258,285.734,293.704,302.418,322.839,291.743z"/>
<path style="fill:#F2F2F2;" d="M322.839,148.154v143.589c-29.135,10.675-42.581-6.009-76.011-12.702
	c-33.549-6.705-57.035,14.262-57.035,14.262V148.154H322.839z"/>
<polyline style="fill:#CCCCCC;" points="189.797,8.996 189.797,60.729 322.842,60.729 322.842,8.996 "/>
<polyline style="fill:#B3B3B3;" points="189.798,8.996 189.798,60.729 227.49,60.729 227.49,8.996 "/>
<polyline style="fill:#CCCCCC;" points="332.936,91.9 332.936,60.726 322.836,60.726 189.803,60.726 179.703,60.726 179.703,91.9 
	"/>
<polyline style="fill:#999999;" points="239.384,91.9 239.384,60.726 235.451,60.726 183.64,60.726 179.706,60.726 179.706,91.9 "/>
<rect x="169.282" y="91.904" style="fill:#E6E6E6;" width="173.432" height="56.26"/>
<rect x="169.282" y="91.904" style="fill:#CCCCCC;" width="46.024" height="56.26"/>
<g>
	<path style="fill:#FFFFFF;" d="M295.726,45.383c-4.968,0-8.996-4.028-8.996-8.996V29.19c0-4.968,4.028-8.996,8.996-8.996
		c4.968,0,8.996,4.028,8.996,8.996v7.197C304.722,41.355,300.694,45.383,295.726,45.383z"/>
	<circle style="fill:#FFFFFF;" cx="313.723" cy="120.943" r="8.996"/>
</g>
<g>
	<path style="fill:#333333;" d="M342.716,82.904h-0.784V60.726c0-4.968-4.028-8.996-8.996-8.996h-1.099V8.996
		c0-4.968-4.028-8.996-8.996-8.996c-4.968,0-8.996,4.028-8.996,8.996V51.73H198.792V8.996c0-4.968-4.028-8.996-8.996-8.996
		S180.8,4.028,180.8,8.996V51.73h-1.098c-4.968,0-8.996,4.028-8.996,8.996v22.178h-1.424c-4.968,0-8.996,4.028-8.996,8.996v56.26
		c0,4.968,4.028,8.996,8.996,8.996h11.511v345.848c0,4.968,4.028,8.996,8.996,8.996s8.996-4.028,8.996-8.996V367.991l18.36-9.721
		l32.457,21.393c1.51,0.996,3.233,1.485,4.949,1.485c2.142,0,4.273-0.763,5.963-2.257l16.356-14.469l13.438,9.932
		c3.49,2.58,8.324,2.301,11.493-0.664l12.04-11.263v140.577c0,4.968,4.028,8.996,8.996,8.996s8.996-4.028,8.996-8.996V157.156
		h10.884c4.968,0,8.996-4.028,8.996-8.996V91.9C351.713,86.932,347.686,82.904,342.716,82.904z M188.701,69.722h135.241v13.182
		H188.701V69.722z M294.98,355.434l-13.27-9.808c-3.414-2.524-8.128-2.316-11.307,0.497l-16.649,14.728l-31.155-20.534
		c-2.743-1.808-6.254-1.976-9.16-0.439l-14.652,7.757v-49.909c6.689-4.674,23.837-14.343,46.278-9.856
		c10.822,2.164,19.325,5.417,27.547,8.562c10.345,3.957,20.319,7.774,32.091,7.773c2.921,0,5.963-0.252,9.139-0.778v34.365
		L294.98,355.434z M313.842,285.082c-12.636,3.005-21.816-0.491-34.802-5.458c-8.502-3.252-18.138-6.939-30.446-9.4
		c-20.93-4.186-38.321,1.086-49.806,6.737V157.156h115.053V285.082z M333.72,139.164h-10.837c-0.016,0-0.031-0.002-0.047-0.002
		s-0.031,0.002-0.047,0.002H189.838c-0.016,0-0.031-0.002-0.047-0.002s-0.031,0.002-0.047,0.002h-11.465v-38.268h155.44v38.268
		H333.72z"/>
	<circle style="fill:#333333;" cx="289.781" cy="407.389" r="8.996"/>
	<circle style="fill:#333333;" cx="227.709" cy="400.672" r="8.996"/>
	<circle style="fill:#333333;" cx="257.911" cy="449.323" r="8.996"/>
	<circle style="fill:#333333;" cx="220.164" cy="468.622" r="8.996"/>
	<circle style="fill:#333333;" cx="285.595" cy="482.044" r="8.996"/>
</g>
<g>
</g>
<g>
</g>
<g>
</g>
<g>
</g>
<g>
</g>
<g>
</g>
<g>
</g>
<g>
</g>
<g>
</g>
<g>
</g>
<g>
</g>
<g>
</g>
<g>
</g>
<g>
</g>
<g>
</g>
</svg>
