<?xml version="1.0" encoding="iso-8859-1"?>
<!-- Generator: Adobe Illustrator 19.0.0, SVG Export Plug-In . SVG Version: 6.00 Build 0)  -->
<svg version="1.1" id="Layer_1" xmlns="http://www.w3.org/2000/svg" xmlns:xlink="http://www.w3.org/1999/xlink" x="0px" y="0px"
	 viewBox="0 0 511.999 511.999" style="enable-background:new 0 0 511.999 511.999;" xml:space="preserve">
<g>
	<path style="fill:#020202;" d="M142.362,17.294c-0.694-9.261-7.221-14.958-7.965-15.578C133.069,0.609,131.385,0,129.656,0
		c-2.199,0-4.265,0.965-5.667,2.647c-2.604,3.126-2.187,7.782,0.873,10.331c0.025,0.023,2.583,2.35,2.787,5.474
		c0.152,2.321-1.022,4.905-3.49,7.681c-5.311,5.976-7.717,12.276-7.153,18.726c0.795,9.091,7.344,14.521,8.089,15.111
		c1.299,1.027,2.923,1.593,4.576,1.593c2.271,0,4.381-1.02,5.787-2.799c1.223-1.546,1.771-3.475,1.545-5.432
		c-0.228-1.958-1.205-3.711-2.683-4.879c-0.024-0.021-2.367-2.072-2.615-4.879c-0.196-2.246,0.976-4.816,3.484-7.635
		C140.433,30.039,142.847,23.765,142.362,17.294z"/>
	<path style="fill:#020202;" d="M204.609,17.294c-0.693-9.261-7.22-14.958-7.964-15.578C195.316,0.609,193.634,0,191.905,0
		c-2.2,0-4.265,0.965-5.67,2.647c-2.603,3.126-2.186,7.781,0.875,10.332c0.025,0.023,2.583,2.348,2.786,5.473
		c0.151,2.321-1.023,4.905-3.49,7.681c-5.311,5.975-7.717,12.275-7.154,18.726c0.795,9.091,7.344,14.521,8.09,15.111
		c1.299,1.027,2.924,1.593,4.575,1.593c2.271,0,4.382-1.02,5.789-2.799c1.223-1.546,1.771-3.475,1.544-5.432
		c-0.228-1.958-1.204-3.711-2.684-4.879c-0.023-0.021-2.367-2.072-2.612-4.879c-0.196-2.246,0.974-4.816,3.483-7.635
		C202.682,30.039,205.093,23.765,204.609,17.294z"/>
	<path style="fill:#020202;" d="M266.858,17.293c-0.694-9.265-7.221-14.959-7.964-15.577c-1.325-1.101-3-1.709-4.721-1.709
		c-2.197,0-4.265,0.967-5.672,2.655c-2.57,3.084-2.19,7.667,0.89,10.343l-0.002,0.001c0.025,0.024,2.522,2.311,2.753,5.389
		c0.174,2.337-0.999,4.942-3.486,7.74c-5.311,5.975-7.717,12.275-7.155,18.726c0.796,9.079,7.344,14.518,8.093,15.113
		c1.299,1.026,2.922,1.591,4.573,1.591c2.271,0,4.381-1.02,5.789-2.799c2.526-3.191,1.984-7.842-1.141-10.312
		c-0.023-0.021-2.367-2.072-2.612-4.879c-0.199-2.246,0.974-4.816,3.483-7.635C264.929,30.04,267.342,23.767,266.858,17.293z"/>
	<path style="fill:#020202;" d="M329.107,17.294c-0.692-9.261-7.221-14.958-7.964-15.578C319.814,0.609,318.132,0,316.403,0
		c-2.201,0-4.266,0.965-5.67,2.647c-2.604,3.126-2.186,7.782,0.873,10.331c0.027,0.023,2.583,2.35,2.788,5.474
		c0.152,2.32-1.021,4.905-3.49,7.681c-5.311,5.976-7.719,12.276-7.154,18.726c0.777,8.885,6.871,14.145,8.092,15.114
		c1.299,1.024,2.922,1.59,4.573,1.59c2.27,0,4.382-1.02,5.788-2.799c1.224-1.545,1.773-3.475,1.545-5.432
		c-0.223-1.925-1.172-3.651-2.694-4.888c-0.157-0.139-2.364-2.148-2.602-4.87c-0.198-2.246,0.974-4.816,3.481-7.635
		C327.179,30.039,329.591,23.765,329.107,17.294z"/>
	<path style="fill:#020202;" d="M383.304,48.444c-0.159-0.139-2.365-2.148-2.604-4.87c-0.197-2.246,0.976-4.816,3.484-7.635
		c5.243-5.901,7.657-12.174,7.173-18.645c-0.694-9.261-7.221-14.958-7.966-15.578C382.064,0.609,380.379,0,378.65,0
		c-2.199,0-4.265,0.965-5.667,2.647c-2.604,3.126-2.188,7.782,0.873,10.331c0.025,0.023,2.583,2.35,2.787,5.474
		c0.152,2.32-1.022,4.905-3.49,7.681c-5.312,5.976-7.717,12.276-7.153,18.726c0.792,9.079,7.342,14.518,8.09,15.114
		c1.3,1.024,2.924,1.59,4.574,1.59c2.269,0,4.381-1.02,5.788-2.799c1.223-1.545,1.773-3.475,1.544-5.432
		C385.773,51.407,384.826,49.68,383.304,48.444z"/>
</g>
<circle style="fill:#636D77;" cx="405.021" cy="471.099" r="32.805"/>
<path style="fill:#E2453D;" d="M317.531,365.307H194.467c-7.154,0-12.954,5.799-12.954,12.954v27.23h148.973v-27.23
	C330.485,371.106,324.685,365.307,317.531,365.307z"/>
<g style="opacity:0.2;">
	<path style="fill:#020202;" d="M220.227,365.307h-25.76c-7.154,0-12.954,5.799-12.954,12.954v27.23h25.76v-27.23
		C207.273,371.106,213.073,365.307,220.227,365.307z"/>
</g>
<path style="fill:#636D77;" d="M352.861,127.926H62.895c-11.808,0-21.378-9.57-21.378-21.377c0-11.806,9.57-21.375,21.378-21.375
	h386.211c11.806,0,21.375,9.57,21.375,21.375c0,11.807-9.57,21.377-21.375,21.377h-69.633"/>
<g style="opacity:0.2;">
	<path style="fill:#020202;" d="M67.784,106.55c0-11.806,9.57-21.375,21.378-21.375H62.895c-11.808,0-21.378,9.57-21.378,21.375
		c0,11.807,9.57,21.377,21.378,21.377h26.267C77.354,127.926,67.784,118.356,67.784,106.55z"/>
</g>
<path style="fill:#7C868E;" d="M62.702,127.924c0,106.756,86.542,193.296,193.297,193.296s193.295-86.54,193.295-193.296"/>
<g style="opacity:0.2;">
	<path style="fill:#020202;" d="M88.481,127.924H62.702c0,106.756,86.542,193.296,193.297,193.296c4.333,0,8.627-0.158,12.888-0.438
		C168.145,314.148,88.481,230.348,88.481,127.924z"/>
</g>
<path style="fill:#020202;" d="M503.201,167.585h-49.74c0.846-4.22,1.557-8.487,2.134-12.797h47.607
	c4.472,0,8.096-3.624,8.096-8.096s-3.624-8.096-8.096-8.096h-46.094c0.065-1.239,0.108-2.484,0.15-3.73
	c12.296-3.546,21.318-14.893,21.318-28.317c0-16.251-13.221-29.472-29.472-29.472H62.895c-16.252,0-29.474,13.221-29.474,29.472
	c0,13.423,9.023,24.769,21.318,28.316c0.042,1.246,0.085,2.49,0.15,3.73H8.797c-4.472,0-8.096,3.624-8.096,8.096
	c0,4.472,3.624,8.096,8.096,8.096h47.607c0.576,4.309,1.288,8.577,2.134,12.797H8.797c-4.472,0-8.096,3.624-8.096,8.096
	s3.624,8.096,8.096,8.096h53.695c13.945,48.239,45.481,89.079,87.178,115.107l-31.981,104.17c-0.006,0.021-0.013,0.042-0.019,0.063
	l-28.309,92.209H77.868c-4.472,0-8.096,3.624-8.096,8.096c0,4.472,3.624,8.096,8.096,8.096H95.32c0.01,0,0.018,0.002,0.028,0.002
	c0.009,0,0.017-0.002,0.026-0.002h20.878c4.472,0,8.096-3.624,8.096-8.096c0-4.472-3.624-8.096-8.096-8.096H106.3l25.094-81.739
	h50.117h148.973h48.779l6.458,21.463c-12.845,6.905-21.6,20.472-21.6,36.048c0,22.553,18.348,40.902,40.902,40.902
	c22.553,0,40.902-18.349,40.902-40.902c0-22.553-18.349-40.901-40.902-40.901c-1.28,0-2.546,0.067-3.797,0.182l-8.205-27.273
	c-0.004-0.014-0.009-0.028-0.013-0.043l-31.24-103.832c41.975-26.011,73.731-67.001,87.738-115.457h53.696
	c4.472,0,8.096-3.624,8.096-8.096S507.673,167.585,503.201,167.585z M429.73,471.098c0,13.625-11.084,24.709-24.709,24.709
	s-24.709-11.084-24.709-24.709c0-8.22,4.04-15.513,10.234-20.007l6.722,22.341c1.055,3.504,4.269,5.766,7.75,5.766
	c0.773,0,1.558-0.112,2.336-0.345c4.281-1.288,6.708-5.803,5.42-10.086l-6.724-22.349C419.2,446.958,429.73,457.819,429.73,471.098z
	 M189.609,397.395v-19.133c0-2.678,2.18-4.858,4.858-4.858h123.064c2.678,0,4.858,2.18,4.858,4.858v19.133H189.609z
	 M374.391,397.395h-35.81v-19.133c0-11.607-9.444-21.051-21.05-21.051H194.467c-11.607,0-21.051,9.444-21.051,21.051v19.133h-37.05
	l27.724-90.302c27.571,14.2,58.819,22.225,91.909,22.225c32.852,0,63.89-7.91,91.315-21.921L374.391,397.395z M349.844,287.526
	c-0.017,0.005-0.033,0.008-0.051,0.013c-1.253,0.377-2.341,1.036-3.23,1.879c-26.792,15.085-57.688,23.706-90.565,23.706
	c-99.405,0-180.758-78.726-185.012-177.103h281.876c4.472,0,8.096-3.624,8.096-8.096s-3.624-8.096-8.096-8.096H62.895
	c-7.323,0-13.281-5.958-13.281-13.28c0-7.321,5.958-13.279,13.281-13.279h386.211c7.321,0,13.279,5.958,13.279,13.279
	c0,7.322-5.958,13.28-13.279,13.28h-69.633c-4.472,0-8.096,3.624-8.096,8.096s3.624,8.096,8.096,8.096h61.539
	C438.222,200.526,402.285,256.573,349.844,287.526z"/>
<g>
</g>
<g>
</g>
<g>
</g>
<g>
</g>
<g>
</g>
<g>
</g>
<g>
</g>
<g>
</g>
<g>
</g>
<g>
</g>
<g>
</g>
<g>
</g>
<g>
</g>
<g>
</g>
<g>
</g>
</svg>
